<svg width="87" height="53" viewBox="0 0 87 53" fill="none" xmlns="http://www.w3.org/2000/svg">
<g id="Group">
<path id="Vector" d="M28.3249 50.9987L56.6488 51.7301C64.1607 51.924 71.433 49.477 76.8658 44.9273C82.2986 40.3776 85.4468 34.098 85.618 27.4698C85.7891 20.8416 82.9692 14.4078 77.7784 9.58376C72.5877 4.75975 65.4514 1.94069 57.9394 1.74671L29.6155 1.01534C22.1036 0.821373 14.8313 3.26839 9.39849 7.81808C3.96571 12.3678 0.817455 18.6474 0.646304 25.2756C0.475153 31.9038 3.29512 38.3376 8.48586 43.1616C13.6766 47.9856 20.8129 50.8047 28.3249 50.9987ZM57.6168 14.2426C60.4177 14.3149 63.1369 15.1184 65.4303 16.5516C67.7238 17.9848 69.4886 19.9833 70.5015 22.2943C71.5144 24.6053 71.73 27.125 71.121 29.5349C70.5119 31.9447 69.1056 34.1364 67.0799 35.8329C65.0542 37.5293 62.5001 38.6542 59.7405 39.0655C56.9809 39.4767 54.1398 39.1557 51.5764 38.1431C49.0131 37.1305 46.8427 35.4718 45.3396 33.3766C43.8365 31.2815 43.0683 28.8441 43.1321 26.3727C43.2177 23.0586 44.7918 19.9188 47.5082 17.6439C50.2246 15.3691 53.8608 14.1456 57.6168 14.2426Z" fill="white"/>
</g>
</svg>
