<svg width="26" height="25" viewBox="0 0 26 25" fill="none" xmlns="http://www.w3.org/2000/svg">
<path d="M20.588 17.5543C21.9908 15.7655 22.7702 13.6786 22.7702 11.2935C22.7702 5.47981 17.9381 0.709625 11.859 0.709625C5.77995 0.709625 0.791992 5.47981 0.791992 11.2935C0.791992 17.1071 5.77995 21.8773 11.859 21.8773C14.353 21.8773 16.6911 21.132 18.4057 19.7904L23.0819 24.2624C23.3937 24.5606 23.8613 24.7096 24.1731 24.7096C24.4848 24.7096 24.9524 24.5606 25.2642 24.2624C25.8877 23.6661 25.8877 22.7717 25.2642 22.1755L20.588 17.5543ZM11.859 18.7469C7.49456 18.7469 3.90947 15.4674 3.90947 11.2935C3.90947 7.11956 7.49456 3.69099 11.859 3.69099C16.2235 3.69099 19.8086 7.11956 19.8086 11.2935C19.8086 15.4674 16.2235 18.7469 11.859 18.7469Z" fill="black"/>
</svg>
