<svg width="26" height="25" viewBox="0 0 26 25" fill="none" xmlns="http://www.w3.org/2000/svg">
<path d="M20.5877 17.5543C21.9906 15.7655 22.77 13.6786 22.77 11.2935C22.77 5.47981 17.9379 0.709625 11.8588 0.709625C5.77971 0.709625 0.791748 5.47981 0.791748 11.2935C0.791748 17.1071 5.77971 21.8773 11.8588 21.8773C14.3528 21.8773 16.6909 21.132 18.4055 19.7904L23.0817 24.2624C23.3934 24.5606 23.8611 24.7096 24.1728 24.7096C24.4846 24.7096 24.9522 24.5606 25.2639 24.2624C25.8874 23.6661 25.8874 22.7717 25.2639 22.1755L20.5877 17.5543ZM11.8588 18.7469C7.49432 18.7469 3.90922 15.4674 3.90922 11.2935C3.90922 7.11956 7.49432 3.69099 11.8588 3.69099C16.2233 3.69099 19.8083 7.11956 19.8083 11.2935C19.8083 15.4674 16.2233 18.7469 11.8588 18.7469Z" fill="black"/>
</svg>
