<svg width="26" height="25" viewBox="0 0 26 25" fill="none" xmlns="http://www.w3.org/2000/svg">
<path d="M20.3191 17.5543C21.722 15.7655 22.5013 13.6786 22.5013 11.2935C22.5013 5.47981 17.6692 0.709625 11.5902 0.709625C5.51109 0.709625 0.523132 5.47981 0.523132 11.2935C0.523132 17.1071 5.51109 21.8773 11.5902 21.8773C14.0842 21.8773 16.4223 21.132 18.1369 19.7904L22.8131 24.2624C23.1248 24.5606 23.5925 24.7096 23.9042 24.7096C24.2159 24.7096 24.6836 24.5606 24.9953 24.2624C25.6188 23.6661 25.6188 22.7717 24.9953 22.1755L20.3191 17.5543ZM11.5902 18.7469C7.22571 18.7469 3.64061 15.4674 3.64061 11.2935C3.64061 7.11956 7.22571 3.69099 11.5902 3.69099C15.9546 3.69099 19.5397 7.11956 19.5397 11.2935C19.5397 15.4674 15.9546 18.7469 11.5902 18.7469Z" fill="black"/>
</svg>
