<svg width="26" height="25" viewBox="0 0 26 25" fill="none" xmlns="http://www.w3.org/2000/svg">
<g id="search">
<path id="Vector" d="M20.3175 17.5543C21.7203 15.7655 22.4997 13.6786 22.4997 11.2935C22.4997 5.47981 17.6676 0.709625 11.5885 0.709625C5.50945 0.709625 0.521484 5.47981 0.521484 11.2935C0.521484 17.1071 5.50945 21.8773 11.5885 21.8773C14.0825 21.8773 16.4206 21.132 18.1352 19.7904L22.8114 24.2624C23.1232 24.5606 23.5908 24.7096 23.9026 24.7096C24.2143 24.7096 24.6819 24.5606 24.9937 24.2624C25.6172 23.6661 25.6172 22.7717 24.9937 22.1755L20.3175 17.5543ZM11.5885 18.7469C7.22406 18.7469 3.63896 15.4674 3.63896 11.2935C3.63896 7.11956 7.22406 3.69099 11.5885 3.69099C15.953 3.69099 19.5381 7.11956 19.5381 11.2935C19.5381 15.4674 15.953 18.7469 11.5885 18.7469Z" fill="black"/>
</g>
</svg>
